<mxfile host="app.diagrams.net" modified="2023-10-23T21:13:26.890Z" agent="Mozilla/5.0 (Windows NT 10.0; Win64; x64) AppleWebKit/537.36 (KHTML, like Gecko) Chrome/117.0.0.0 Safari/537.36" etag="1I80DU65VwepwqUrTK5C" version="22.0.6" type="device">
  <diagram name="Сторінка-1" id="IFQGtGRkMmTuF9T0lR22">
    <mxGraphModel dx="1434" dy="796" grid="1" gridSize="10" guides="1" tooltips="1" connect="1" arrows="1" fold="1" page="1" pageScale="1" pageWidth="1169" pageHeight="827" math="0" shadow="0">
      <root>
        <mxCell id="0" />
        <mxCell id="1" parent="0" />
        <mxCell id="g6geEqBfM3oW1D-aOsGb-2" value="CurrencyData" style="swimlane;fontStyle=0;childLayout=stackLayout;horizontal=1;startSize=30;horizontalStack=0;resizeParent=1;resizeParentMax=0;resizeLast=0;collapsible=1;marginBottom=0;whiteSpace=wrap;html=1;" vertex="1" parent="1">
          <mxGeometry x="540" y="470" width="230" height="160" as="geometry" />
        </mxCell>
        <mxCell id="g6geEqBfM3oW1D-aOsGb-3" value="-CurrencyCode: String&lt;br&gt;-ConversionRate: int&lt;br&gt;-exchangeRate: double" style="text;strokeColor=none;fillColor=none;align=left;verticalAlign=middle;spacingLeft=4;spacingRight=4;overflow=hidden;points=[[0,0.5],[1,0.5]];portConstraint=eastwest;rotatable=0;whiteSpace=wrap;html=1;" vertex="1" parent="g6geEqBfM3oW1D-aOsGb-2">
          <mxGeometry y="30" width="230" height="70" as="geometry" />
        </mxCell>
        <mxCell id="g6geEqBfM3oW1D-aOsGb-4" value=" +getCurrencyCode()" style="text;strokeColor=none;fillColor=none;align=left;verticalAlign=middle;spacingLeft=4;spacingRight=4;overflow=hidden;points=[[0,0.5],[1,0.5]];portConstraint=eastwest;rotatable=0;whiteSpace=wrap;html=1;" vertex="1" parent="g6geEqBfM3oW1D-aOsGb-2">
          <mxGeometry y="100" width="230" height="30" as="geometry" />
        </mxCell>
        <mxCell id="g6geEqBfM3oW1D-aOsGb-5" value="+getConversionRate()&lt;br&gt;+getExchangeRate()" style="text;strokeColor=none;fillColor=none;align=left;verticalAlign=middle;spacingLeft=4;spacingRight=4;overflow=hidden;points=[[0,0.5],[1,0.5]];portConstraint=eastwest;rotatable=0;whiteSpace=wrap;html=1;" vertex="1" parent="g6geEqBfM3oW1D-aOsGb-2">
          <mxGeometry y="130" width="230" height="30" as="geometry" />
        </mxCell>
        <mxCell id="g6geEqBfM3oW1D-aOsGb-7" value="&amp;lt;Interface&amp;gt;&lt;br&gt;CurrencyDataLoader" style="swimlane;fontStyle=0;childLayout=stackLayout;horizontal=1;startSize=30;horizontalStack=0;resizeParent=1;resizeParentMax=0;resizeLast=0;collapsible=1;marginBottom=0;whiteSpace=wrap;html=1;" vertex="1" parent="1">
          <mxGeometry x="280" y="140" width="270" height="60" as="geometry" />
        </mxCell>
        <mxCell id="g6geEqBfM3oW1D-aOsGb-8" value="+loadExchangeRates() List&amp;lt;CurrencyData&amp;gt;" style="text;strokeColor=none;fillColor=none;align=left;verticalAlign=middle;spacingLeft=4;spacingRight=4;overflow=hidden;points=[[0,0.5],[1,0.5]];portConstraint=eastwest;rotatable=0;whiteSpace=wrap;html=1;" vertex="1" parent="g6geEqBfM3oW1D-aOsGb-7">
          <mxGeometry y="30" width="270" height="30" as="geometry" />
        </mxCell>
        <mxCell id="g6geEqBfM3oW1D-aOsGb-11" value="&amp;lt;Interface&amp;gt;&lt;br&gt;CurrencyConventer" style="swimlane;fontStyle=0;childLayout=stackLayout;horizontal=1;startSize=30;horizontalStack=0;resizeParent=1;resizeParentMax=0;resizeLast=0;collapsible=1;marginBottom=0;whiteSpace=wrap;html=1;" vertex="1" parent="1">
          <mxGeometry x="690" y="140" width="290" height="60" as="geometry" />
        </mxCell>
        <mxCell id="g6geEqBfM3oW1D-aOsGb-12" value="+convertCurrency(List&amp;lt;CurrencyData&amp;gt;) void" style="text;strokeColor=none;fillColor=none;align=left;verticalAlign=middle;spacingLeft=4;spacingRight=4;overflow=hidden;points=[[0,0.5],[1,0.5]];portConstraint=eastwest;rotatable=0;whiteSpace=wrap;html=1;" vertex="1" parent="g6geEqBfM3oW1D-aOsGb-11">
          <mxGeometry y="30" width="290" height="30" as="geometry" />
        </mxCell>
        <mxCell id="g6geEqBfM3oW1D-aOsGb-15" value="XmlCurrencyDataLoader" style="swimlane;fontStyle=0;childLayout=stackLayout;horizontal=1;startSize=30;horizontalStack=0;resizeParent=1;resizeParentMax=0;resizeLast=0;collapsible=1;marginBottom=0;whiteSpace=wrap;html=1;" vertex="1" parent="1">
          <mxGeometry x="250" y="284" width="330" height="130" as="geometry" />
        </mxCell>
        <mxCell id="g6geEqBfM3oW1D-aOsGb-16" value="-instance:&amp;nbsp;XmlCurrencyDataLoader&lt;br&gt;- xmlUrl: String&lt;br&gt;" style="text;strokeColor=none;fillColor=none;align=left;verticalAlign=middle;spacingLeft=4;spacingRight=4;overflow=hidden;points=[[0,0.5],[1,0.5]];portConstraint=eastwest;rotatable=0;whiteSpace=wrap;html=1;" vertex="1" parent="g6geEqBfM3oW1D-aOsGb-15">
          <mxGeometry y="30" width="330" height="50" as="geometry" />
        </mxCell>
        <mxCell id="g6geEqBfM3oW1D-aOsGb-17" value="+getInstance(String xmlUrl): XmlCurrencyDataLoader&lt;br&gt;+loadExchangeRates(): List&amp;lt;CurrencyData&amp;gt;" style="text;strokeColor=none;fillColor=none;align=left;verticalAlign=middle;spacingLeft=4;spacingRight=4;overflow=hidden;points=[[0,0.5],[1,0.5]];portConstraint=eastwest;rotatable=0;whiteSpace=wrap;html=1;" vertex="1" parent="g6geEqBfM3oW1D-aOsGb-15">
          <mxGeometry y="80" width="330" height="50" as="geometry" />
        </mxCell>
        <mxCell id="g6geEqBfM3oW1D-aOsGb-19" value="Main" style="swimlane;fontStyle=0;childLayout=stackLayout;horizontal=1;startSize=30;horizontalStack=0;resizeParent=1;resizeParentMax=0;resizeLast=0;collapsible=1;marginBottom=0;whiteSpace=wrap;html=1;" vertex="1" parent="1">
          <mxGeometry x="10" y="319" width="180" height="60" as="geometry" />
        </mxCell>
        <mxCell id="g6geEqBfM3oW1D-aOsGb-20" value="+ main(String[] args): void" style="text;strokeColor=none;fillColor=none;align=left;verticalAlign=middle;spacingLeft=4;spacingRight=4;overflow=hidden;points=[[0,0.5],[1,0.5]];portConstraint=eastwest;rotatable=0;whiteSpace=wrap;html=1;" vertex="1" parent="g6geEqBfM3oW1D-aOsGb-19">
          <mxGeometry y="30" width="180" height="30" as="geometry" />
        </mxCell>
        <mxCell id="g6geEqBfM3oW1D-aOsGb-28" value="SimpleCurrencyConventer" style="swimlane;fontStyle=0;childLayout=stackLayout;horizontal=1;startSize=50;horizontalStack=0;resizeParent=1;resizeParentMax=0;resizeLast=0;collapsible=1;marginBottom=0;whiteSpace=wrap;html=1;" vertex="1" parent="1">
          <mxGeometry x="710" y="299" width="280" height="100" as="geometry" />
        </mxCell>
        <mxCell id="g6geEqBfM3oW1D-aOsGb-29" value="&lt;br&gt;+convertCurrency(List&amp;lt;CurrencyData&amp;gt;) void" style="text;strokeColor=none;fillColor=none;align=left;verticalAlign=middle;spacingLeft=4;spacingRight=4;overflow=hidden;points=[[0,0.5],[1,0.5]];portConstraint=eastwest;rotatable=0;whiteSpace=wrap;html=1;" vertex="1" parent="g6geEqBfM3oW1D-aOsGb-28">
          <mxGeometry y="50" width="280" height="50" as="geometry" />
        </mxCell>
        <mxCell id="g6geEqBfM3oW1D-aOsGb-39" value="" style="rounded=0;orthogonalLoop=1;jettySize=auto;html=1;endArrow=halfCircle;endFill=0;endSize=6;strokeWidth=1;sketch=0;exitX=0.497;exitY=1.067;exitDx=0;exitDy=0;exitPerimeter=0;" edge="1" parent="1" source="g6geEqBfM3oW1D-aOsGb-8">
          <mxGeometry relative="1" as="geometry">
            <mxPoint x="520" y="385" as="sourcePoint" />
            <mxPoint x="415" y="250" as="targetPoint" />
          </mxGeometry>
        </mxCell>
        <mxCell id="g6geEqBfM3oW1D-aOsGb-40" value="" style="rounded=0;orthogonalLoop=1;jettySize=auto;html=1;endArrow=oval;endFill=0;sketch=0;sourcePerimeterSpacing=0;targetPerimeterSpacing=0;endSize=10;exitX=0.5;exitY=0;exitDx=0;exitDy=0;" edge="1" parent="1" source="g6geEqBfM3oW1D-aOsGb-15">
          <mxGeometry relative="1" as="geometry">
            <mxPoint x="480" y="385" as="sourcePoint" />
            <mxPoint x="415" y="250" as="targetPoint" />
          </mxGeometry>
        </mxCell>
        <mxCell id="g6geEqBfM3oW1D-aOsGb-41" value="" style="ellipse;whiteSpace=wrap;html=1;align=center;aspect=fixed;fillColor=none;strokeColor=none;resizable=0;perimeter=centerPerimeter;rotatable=0;allowArrows=0;points=[];outlineConnect=1;" vertex="1" parent="1">
          <mxGeometry x="495" y="380" width="10" height="10" as="geometry" />
        </mxCell>
        <mxCell id="g6geEqBfM3oW1D-aOsGb-42" value="" style="rounded=0;orthogonalLoop=1;jettySize=auto;html=1;endArrow=halfCircle;endFill=0;endSize=6;strokeWidth=1;sketch=0;exitX=0.497;exitY=1.067;exitDx=0;exitDy=0;exitPerimeter=0;" edge="1" parent="1">
          <mxGeometry relative="1" as="geometry">
            <mxPoint x="840" y="200" as="sourcePoint" />
            <mxPoint x="841" y="248" as="targetPoint" />
          </mxGeometry>
        </mxCell>
        <mxCell id="g6geEqBfM3oW1D-aOsGb-43" value="" style="rounded=0;orthogonalLoop=1;jettySize=auto;html=1;endArrow=oval;endFill=0;sketch=0;sourcePerimeterSpacing=0;targetPerimeterSpacing=0;endSize=10;exitX=0.474;exitY=-0.006;exitDx=0;exitDy=0;exitPerimeter=0;" edge="1" parent="1" source="g6geEqBfM3oW1D-aOsGb-28">
          <mxGeometry relative="1" as="geometry">
            <mxPoint x="841" y="282" as="sourcePoint" />
            <mxPoint x="841" y="248" as="targetPoint" />
          </mxGeometry>
        </mxCell>
        <mxCell id="g6geEqBfM3oW1D-aOsGb-46" value="" style="endArrow=none;html=1;rounded=0;" edge="1" parent="1">
          <mxGeometry width="50" height="50" relative="1" as="geometry">
            <mxPoint x="770" y="560" as="sourcePoint" />
            <mxPoint x="880" y="560" as="targetPoint" />
          </mxGeometry>
        </mxCell>
        <mxCell id="g6geEqBfM3oW1D-aOsGb-47" value="" style="endArrow=none;html=1;rounded=0;entryX=0.613;entryY=1.043;entryDx=0;entryDy=0;entryPerimeter=0;" edge="1" parent="1" target="g6geEqBfM3oW1D-aOsGb-29">
          <mxGeometry width="50" height="50" relative="1" as="geometry">
            <mxPoint x="880" y="560" as="sourcePoint" />
            <mxPoint x="930" y="480" as="targetPoint" />
          </mxGeometry>
        </mxCell>
        <mxCell id="g6geEqBfM3oW1D-aOsGb-48" value="" style="endArrow=none;html=1;rounded=0;entryX=0.613;entryY=1.043;entryDx=0;entryDy=0;entryPerimeter=0;" edge="1" parent="1">
          <mxGeometry width="50" height="50" relative="1" as="geometry">
            <mxPoint x="414" y="573" as="sourcePoint" />
            <mxPoint x="416" y="414" as="targetPoint" />
          </mxGeometry>
        </mxCell>
        <mxCell id="g6geEqBfM3oW1D-aOsGb-49" value="" style="endArrow=none;html=1;rounded=0;entryX=0.002;entryY=-0.004;entryDx=0;entryDy=0;entryPerimeter=0;" edge="1" parent="1" target="g6geEqBfM3oW1D-aOsGb-4">
          <mxGeometry width="50" height="50" relative="1" as="geometry">
            <mxPoint x="410" y="570" as="sourcePoint" />
            <mxPoint x="530" y="570" as="targetPoint" />
          </mxGeometry>
        </mxCell>
        <mxCell id="g6geEqBfM3oW1D-aOsGb-50" value="" style="endArrow=none;html=1;rounded=0;entryX=0.003;entryY=1;entryDx=0;entryDy=0;entryPerimeter=0;exitX=1;exitY=0.5;exitDx=0;exitDy=0;" edge="1" parent="1" source="g6geEqBfM3oW1D-aOsGb-20" target="g6geEqBfM3oW1D-aOsGb-16">
          <mxGeometry width="50" height="50" relative="1" as="geometry">
            <mxPoint x="160" y="480" as="sourcePoint" />
            <mxPoint x="210" y="430" as="targetPoint" />
          </mxGeometry>
        </mxCell>
      </root>
    </mxGraphModel>
  </diagram>
</mxfile>
